<?xml version="1.0" encoding="UTF-8"?>
<svg xmlns="http://www.w3.org/2000/svg" width="220" height="60" viewBox="0 0 220 60">
    <g fill="#FFF" fill-rule="evenodd">
        <path d="M113.822 44.189c.314 0 .524-.213.577-.531l2.884-16.298c1.05-5.945-.943-9.66-6.766-9.66-3.514 0-6.242 1.326-8.235 3.29h-.052c-.997-2.124-2.885-3.29-5.98-3.29-3.094 0-5.454 1.379-6.871 3.131h-.052l.314-1.965c.052-.318-.105-.53-.42-.53h-7.448c-.315 0-.524.212-.576.53l-4.354 24.792c-.052.318.157.53.42.53h7.5c.315 0 .524-.212.577-.53l2.57-14.864c.42-2.495 1.836-3.929 3.724-3.929 2.046 0 2.78 1.434 2.308 3.982l-2.57 14.81c-.052.32.157.532.472.532h7.449c.314 0 .524-.213.576-.531l2.57-14.864c.42-2.495 1.836-3.929 3.777-3.929 1.993 0 2.728 1.434 2.255 3.982l-2.57 14.81c-.052.32.158.532.473.532h7.448zm-46.044-8.933c.528-1.499 1.35-5.665 1.35-7.312 0-2.016-.786-3.185-2.674-3.185-1.574 0-2.676.743-3.462 2.336-.682 1.433-2.695 12.713-2.896 13.964l-2.035 12.154c-.053.318-.21.53-.525.53h-7.553c-.262 0-.472-.212-.419-.53l5.98-34.347c.052-.318.262-.53.576-.53h7.501c.315 0 .525.212.472.53l-.367 2.019h.052c1.417-1.859 3.777-3.186 6.871-3.186 4.932 0 7.187 3.186 7.187 8.44 0 3.504-1.154 8.863-2.78 12.26-1.994 4.034-4.707 5.56-8.903 5.56-2.312 0-4.508-.94-5.498-1.852a.594.594 0 0 1 .27-1.01c1.704-.4 5.57-2.195 6.853-5.84zM40.54 44.19c-.315 0-.524-.213-.472-.531l2.57-14.811c.472-2.548-.262-3.982-2.256-3.982-1.94 0-3.357 1.434-3.776 3.93l-2.57 14.863c-.053.318-.263.53-.577.53H26.01c-.314 0-.524-.212-.471-.53l2.57-14.811c.472-2.548-.263-3.982-2.308-3.982-1.889 0-3.305 1.434-3.725 3.93l-2.57 14.863c-.052.318-.262.53-.576.53h-7.502c-.261 0-.471-.212-.419-.53l4.354-24.792c.052-.318.262-.53.576-.53h7.45c.314 0 .47.212.419.53l-.315 1.965h.052c1.417-1.752 3.777-3.132 6.871-3.132 3.095 0 4.983 1.167 5.98 3.291h.052c1.993-1.964 4.721-3.29 8.235-3.29 5.823 0 7.816 3.715 6.767 9.66l-2.885 16.298c-.053.318-.263.53-.577.53H40.54zM85.014 10.515l1.158-1.338c.043-.048.088-.072.135-.072h.725c.047 0 .071.024.071.072v.56c0 .05-.024.073-.07.073h-.463c-.028 0-.054.014-.078.043l-.483.554.824 1.416c.024.03.047.044.071.044h.341c.048 0 .071.024.071.071v.561c0 .049-.023.072-.07.072h-.79c-.047 0-.084-.023-.113-.072l-.86-1.496-.469.54v.28c0 .03.014.044.042.044h.306c.048 0 .071.024.071.071v.561c0 .049-.023.072-.07.072H83.87c-.047 0-.071-.023-.071-.072v-.56c0-.048.024-.072.07-.072h.306c.029 0 .043-.015.043-.044V8.43c0-.029-.014-.043-.043-.043h-.305c-.047 0-.071-.024-.071-.072v-.561c0-.048.024-.072.07-.072h1.074c.047 0 .071.024.071.072v2.762zM88.872 8.379c0 .047-.023.071-.07.071h-.654c-.048 0-.071-.024-.071-.071v-.626c0-.048.023-.072.07-.072h.655c.047 0 .07.024.07.072v.626zm0 3.444c0 .03.014.044.043.044h.306c.047 0 .07.024.07.071v.562c0 .048-.023.071-.07.071h-1.493c-.047 0-.07-.023-.07-.071v-.562c0-.047.023-.071.07-.071h.306c.028 0 .043-.014.043-.044v-1.97c0-.029-.015-.043-.043-.043h-.306c-.047 0-.07-.024-.07-.072v-.561c0-.048.023-.072.07-.072h1.074c.047 0 .07.024.07.072v2.646zM92.248 9.163v.625c0 .029-.007.05-.022.061-.014.012-.035.016-.064.011a2.761 2.761 0 0 0-.419-.057c-.255 0-.447.072-.575.215-.128.144-.192.37-.192.676v1.13c0 .029.014.042.043.042h.333c.048 0 .072.025.072.072v.561c0 .048-.024.072-.072.072h-1.52c-.048 0-.071-.024-.071-.072v-.56c0-.048.023-.073.07-.073h.306c.029 0 .043-.013.043-.043v-1.97c0-.029-.014-.043-.043-.043h-.305c-.048 0-.071-.024-.071-.072v-.561c0-.048.023-.072.07-.072h1.074c.047 0 .07.024.07.072v.36h.008a.96.96 0 0 1 .86-.482c.118 0 .23.012.334.035.047.01.071.034.071.073M93.392 10.155a.94.94 0 0 0-.043.295c0 .028.014.043.043.043h1.343c.028 0 .042-.015.042-.043a.93.93 0 0 0-.042-.295.62.62 0 0 0-.249-.327.735.735 0 0 0-.42-.12.747.747 0 0 0-.425.12.623.623 0 0 0-.25.327m2.076-.173c.042.13.072.269.089.418.016.148.024.357.024.625 0 .048-.026.072-.077.072h-2.111c-.029 0-.043.014-.043.043a.78.78 0 0 0 .05.266.743.743 0 0 0 .284.389c.133.09.294.136.483.136.337 0 .605-.11.803-.33.038-.039.074-.044.107-.015l.42.374c.032.029.035.062.007.1a1.566 1.566 0 0 1-.59.432 2.02 2.02 0 0 1-.818.159c-.36 0-.664-.086-.913-.256a1.307 1.307 0 0 1-.515-.708 2.812 2.812 0 0 1-.12-.849c0-.33.037-.616.113-.856.095-.301.266-.537.515-.705.248-.167.544-.251.884-.251.351 0 .65.085.896.255.247.17.417.404.512.701M99.347 9.738c0 .048-.024.072-.071.072h-.185c-.028 0-.048.014-.057.043l-1.13 2.934c-.109.278-.214.494-.316.647a.95.95 0 0 1-.348.331c-.13.067-.293.101-.487.101h-.22c-.048 0-.071-.024-.071-.072v-.576c0-.047.023-.071.07-.071h.129a.482.482 0 0 0 .316-.097.718.718 0 0 0 .195-.313l.1-.295-1.066-2.597c-.01-.024-.027-.035-.05-.035h-.192c-.047 0-.07-.024-.07-.072v-.561c0-.048.023-.072.07-.072h1.329c.047 0 .071.024.071.072v.561c0 .048-.024.072-.071.072h-.227c-.033 0-.045.017-.036.05l.612 1.632h.013l.605-1.632c.004-.015.003-.026-.004-.036a.039.039 0 0 0-.032-.014h-.227c-.048 0-.072-.024-.072-.072v-.561c0-.048.024-.072.072-.072h1.279c.047 0 .07.024.07.072v.561zM102.16 10.752c0 .234.027.424.079.568.095.297.296.446.604.446.312 0 .516-.149.611-.446.052-.144.078-.334.078-.568 0-.226-.026-.415-.078-.569-.095-.292-.299-.438-.611-.438-.308 0-.51.146-.604.438a1.787 1.787 0 0 0-.078.569zm1.372-1.316v-.26c0-.047.024-.071.07-.071h1.074c.048 0 .071.024.071.072v.561c0 .048-.023.072-.071.072h-.305c-.029 0-.043.014-.043.043v2.503c0 .503-.136.894-.409 1.172-.272.278-.669.417-1.19.417-.242 0-.477-.047-.707-.14a1.297 1.297 0 0 1-.536-.378.07.07 0 0 1-.022-.05c0-.015.01-.031.029-.05l.419-.425c.028-.019.047-.029.057-.029.014 0 .03.01.05.03.222.215.47.323.746.323.511 0 .767-.276.767-.827v-.324h-.007c-.17.268-.467.403-.888.403-.29 0-.533-.072-.732-.216a1.208 1.208 0 0 1-.434-.626 2.073 2.073 0 0 1-.089-.395 4.104 4.104 0 0 1-.025-.49c0-.19.009-.351.025-.48.017-.13.046-.262.09-.397.09-.278.234-.489.433-.632.199-.144.443-.216.732-.216.421 0 .718.137.888.41h.007zM107.732 9.163v.625c0 .029-.008.05-.022.061-.014.012-.035.016-.064.011a2.763 2.763 0 0 0-.42-.057c-.255 0-.447.072-.574.215-.129.144-.192.37-.192.676v1.13c0 .029.014.042.042.042h.334c.048 0 .071.025.071.072v.561c0 .048-.023.072-.07.072h-1.522c-.047 0-.07-.024-.07-.072v-.56c0-.048.023-.073.07-.073h.306c.028 0 .043-.013.043-.043v-1.97c0-.029-.015-.043-.043-.043h-.306c-.047 0-.07-.024-.07-.072v-.561c0-.048.023-.072.07-.072h1.074c.047 0 .07.024.07.072v.36h.008a.958.958 0 0 1 .86-.482c.118 0 .23.012.334.035.047.01.07.034.07.073M108.911 10.198c-.028.091-.047.182-.057.273-.01.091-.014.214-.014.367 0 .154.005.277.014.37.01.094.029.184.057.27a.691.691 0 0 0 .242.335.673.673 0 0 0 .405.118c.156 0 .289-.04.398-.118.109-.08.19-.191.241-.335.029-.086.048-.176.057-.27.01-.093.014-.216.014-.37 0-.153-.004-.276-.014-.367a1.385 1.385 0 0 0-.057-.273.65.65 0 0 0-.234-.334.67.67 0 0 0-.405-.12c-.161 0-.297.04-.409.12a.642.642 0 0 0-.238.334m2.054-.216c.038.125.066.252.085.381.02.13.028.288.028.475s-.009.345-.028.475c-.019.13-.047.256-.085.381a1.284 1.284 0 0 1-.515.705 1.56 1.56 0 0 1-.892.252c-.351 0-.65-.085-.9-.252a1.284 1.284 0 0 1-.514-.705 2.592 2.592 0 0 1-.086-.38 3.323 3.323 0 0 1-.028-.476c0-.187.01-.345.028-.475.02-.129.048-.256.086-.38.094-.303.266-.537.515-.706.249-.167.548-.25.899-.25.345 0 .643.083.892.25.248.169.42.403.515.705M114.816 11.823c0 .03.014.044.043.044h.305c.048 0 .071.024.071.071v.561c0 .048-.023.072-.07.072h-1.073c-.048 0-.072-.024-.072-.072v-.252h-.007c-.208.27-.502.403-.881.403-.36 0-.646-.12-.856-.36-.211-.239-.317-.548-.317-.927v-1.51c0-.03-.014-.043-.042-.043h-.306c-.047 0-.07-.024-.07-.072v-.561c0-.048.023-.072.07-.072h1.073c.048 0 .071.024.071.072v2c0 .23.054.413.16.55.107.136.264.204.473.204a.567.567 0 0 0 .465-.204c.112-.137.167-.318.167-.544v-1.33c0-.03-.014-.043-.042-.043h-.313c-.047 0-.071-.024-.071-.072v-.561c0-.048.024-.072.07-.072h1.081c.048 0 .071.024.071.072v2.646zM117.019 10.19c-.048.15-.071.365-.071.648 0 .283.023.499.071.647a.627.627 0 0 0 .234.331.684.684 0 0 0 .405.115.668.668 0 0 0 .402-.115.638.638 0 0 0 .23-.33c.048-.15.072-.365.072-.648 0-.283-.024-.499-.071-.647a.641.641 0 0 0-.23-.331.67.67 0 0 0-.403-.115.686.686 0 0 0-.405.115.63.63 0 0 0-.234.33m2.032-.33c.043.139.074.28.092.42.02.142.029.328.029.558 0 .23-.01.416-.029.558-.018.14-.049.28-.092.42-.09.274-.237.48-.44.622a1.276 1.276 0 0 1-.746.213c-.417 0-.72-.137-.91-.41h-.007v.877c0 .029.014.043.042.043h.306c.047 0 .071.024.071.072v.561c0 .048-.024.072-.071.072h-1.492c-.048 0-.071-.024-.071-.072v-.56c0-.049.023-.073.07-.073h.306c.029 0 .043-.014.043-.043V9.853c0-.03-.014-.043-.043-.043h-.305c-.048 0-.071-.024-.071-.072v-.561c0-.048.023-.072.07-.072h1.073c.048 0 .072.024.072.072v.259h.007c.19-.274.493-.41.91-.41.293 0 .542.07.746.212.203.141.35.349.44.622M136.129 36.275c.057.029.086.072.086.13v.952c0 .073-.036.109-.107.109h-.343c-.071 0-.107-.036-.107-.109v-.606c0-.043-.018-.072-.053-.087a2.428 2.428 0 0 0-.47-.13 2.597 2.597 0 0 0-.59-.064c-.399 0-.705.079-.92.238-.206.151-.31.368-.31.65 0 .26.086.462.257.606.178.137.478.23.899.281l.535.066c.513.064.891.216 1.134.454.242.231.364.556.364.975 0 .498-.172.888-.514 1.17-.342.273-.831.41-1.466.41-.656 0-1.24-.144-1.754-.432-.043-.023-.065-.066-.065-.13v-.996c0-.073.036-.109.107-.109h.343c.071 0 .107.036.107.109v.66c0 .043.014.076.042.097.372.181.8.271 1.284.271.436 0 .767-.087.995-.26.229-.173.343-.415.343-.725 0-.282-.086-.495-.257-.64-.164-.15-.47-.252-.92-.302l-.535-.065c-.485-.058-.852-.203-1.102-.434-.25-.238-.375-.556-.375-.952 0-.462.16-.823.482-1.083.321-.26.767-.39 1.337-.39.592 0 1.117.112 1.573.336M138.943 36.751a1.344 1.344 0 0 0-.503.715c-.093.281-.139.667-.139 1.158 0 .498.046.888.14 1.17.099.31.266.548.502.715.235.166.517.249.845.249.335 0 .62-.083.856-.25.235-.166.403-.404.503-.714.093-.282.139-.672.139-1.17 0-.49-.046-.877-.14-1.158-.099-.31-.267-.549-.502-.715-.235-.166-.52-.249-.856-.249-.328 0-.61.083-.845.25m2.054-.456c.335.231.57.56.706.986.115.368.172.815.172 1.342 0 .535-.057.986-.172 1.354a1.883 1.883 0 0 1-.706.996c-.335.231-.738.346-1.209.346-.463 0-.863-.115-1.198-.346a1.883 1.883 0 0 1-.706-.996c-.114-.368-.172-.82-.172-1.354 0-.527.058-.974.172-1.342.135-.426.37-.755.706-.986.335-.238.735-.357 1.198-.357.471 0 .874.119 1.21.357M145.523 33.957v.325c0 .073-.036.109-.107.109h-.236c-.263 0-.46.025-.588.076a.457.457 0 0 0-.257.27c-.042.13-.064.332-.064.606v.64c0 .042.022.064.064.064h1.081c.071 0 .107.036.107.108v.325c0 .073-.036.109-.107.109h-1.08c-.043 0-.065.021-.065.064v3.953c0 .044.022.065.064.065h.653c.071 0 .107.036.107.109v.324c0 .072-.036.108-.107.108h-1.936c-.072 0-.108-.036-.108-.108v-.324c0-.073.036-.109.108-.109h.577c.043 0 .064-.021.064-.065v-3.953c0-.043-.021-.064-.064-.064h-.545c-.072 0-.108-.036-.108-.109v-.325c0-.072.036-.108.108-.108h.545c.043 0 .064-.022.064-.064v-.553c0-.411.047-.729.14-.953a.867.867 0 0 1 .438-.487c.207-.094.489-.14.845-.14h.3c.071 0 .107.035.107.107M147.545 34.499v1.483c0 .043.021.065.064.065h.963c.072 0 .107.036.107.108v.325c0 .073-.035.109-.107.109h-.963c-.043 0-.064.021-.064.065v3.15c0 .34.06.571.182.694.128.122.346.184.653.184h.192c.072 0 .107.036.107.108v.336c0 .072-.035.108-.107.108h-.278c-.478 0-.82-.104-1.027-.314-.2-.216-.3-.578-.3-1.083v-3.183c0-.044-.021-.065-.064-.065h-.535c-.07 0-.107-.036-.107-.109v-.325c0-.072.036-.108.107-.108h.535c.043 0 .064-.022.064-.065V34.5c0-.072.036-.108.107-.108h.364c.071 0 .107.036.107.108M157.089 36.155v.325c0 .073-.036.109-.107.109h-.343c-.043 0-.07.021-.085.065l-1.434 4.45c-.021.072-.064.108-.128.108h-.321c-.064 0-.107-.036-.129-.108L153.205 37h-.021l-1.349 4.104c-.02.072-.064.108-.128.108h-.321c-.064 0-.107-.036-.128-.108l-1.434-4.45c-.007-.044-.036-.065-.086-.065h-.342c-.071 0-.107-.036-.107-.109v-.325c0-.072.036-.108.107-.108h1.637c.071 0 .107.036.107.108v.325c0 .073-.036.109-.107.109h-.546c-.05 0-.067.025-.054.075l1.135 3.639h.01l1.317-4.148c.02-.072.064-.108.128-.108h.332c.064 0 .107.036.128.108l1.348 4.137h.022l1.123-3.628c.014-.05-.004-.075-.054-.075h-.534c-.072 0-.107-.036-.107-.109v-.325c0-.072.035-.108.107-.108h1.594c.071 0 .107.036.107.108M158.694 39.014c-.229.166-.343.423-.343.769 0 .325.107.574.321.747.221.173.535.26.942.26.442 0 .792-.105 1.048-.314.264-.217.396-.502.396-.855v-.79c0-.044-.021-.066-.064-.066h-1.198c-.5 0-.867.083-1.102.25m2.503-2.686c.285.253.428.693.428 1.321v2.956c0 .043.021.065.065.065h.598c.072 0 .107.036.107.108v.325c0 .072-.035.108-.107.108h-1.112c-.071 0-.107-.036-.107-.108v-.542h-.011c-.107.232-.296.416-.567.553-.264.137-.596.205-.995.205-.528 0-.945-.13-1.252-.39-.306-.266-.46-.645-.46-1.136 0-.506.164-.885.492-1.137.336-.26.817-.39 1.445-.39h1.273c.043 0 .064-.022.064-.065v-.52c0-.44-.093-.75-.278-.93-.185-.189-.517-.282-.995-.282-.407 0-.75.064-1.027.194-.036.015-.054.04-.054.076v.64c0 .072-.035.107-.107.107h-.353c-.07 0-.107-.035-.107-.108v-.931c0-.065.025-.112.075-.141.2-.115.438-.205.717-.27.285-.065.578-.098.877-.098.65 0 1.113.13 1.391.39M166.579 36.047c.064.022.096.061.096.12v.357c0 .086-.04.119-.117.097a3.08 3.08 0 0 0-.643-.076c-.406 0-.734.152-.984.455-.25.296-.374.733-.374 1.31v2.296c0 .044.02.065.064.065h.685c.07 0 .107.036.107.108v.325c0 .072-.036.108-.107.108h-1.99c-.072 0-.107-.036-.107-.108v-.325c0-.072.035-.108.107-.108h.599c.042 0 .064-.021.064-.065v-3.952c0-.044-.022-.065-.064-.065h-.6c-.071 0-.106-.036-.106-.109v-.325c0-.072.035-.108.107-.108h1.134c.07 0 .107.036.107.108v.77h.01c.115-.282.29-.51.525-.683.242-.18.535-.27.877-.27.27 0 .474.025.61.075M168.805 36.73c-.236.165-.404.407-.504.725-.064.202-.096.451-.096.747 0 .043.021.065.064.065h2.793c.043 0 .064-.022.064-.065 0-.296-.032-.545-.096-.747-.1-.318-.271-.56-.514-.725-.235-.167-.52-.25-.856-.25-.335 0-.62.083-.855.25m2.054-.445c.335.231.57.563.706.997.056.166.096.35.117.552.022.202.033.477.033.823 0 .072-.04.108-.118.108h-3.328c-.043 0-.064.026-.064.076 0 .39.036.693.107.91.114.331.293.584.535.758.25.166.553.249.91.249.599 0 1.073-.22 1.423-.661.042-.058.092-.065.15-.022l.245.228c.05.043.054.094.011.151a2.05 2.05 0 0 1-.77.639 2.527 2.527 0 0 1-1.092.227c-.5 0-.916-.115-1.252-.346-.328-.231-.563-.57-.706-1.018-.1-.296-.15-.74-.15-1.332 0-.57.05-1.017.15-1.342.136-.434.368-.766.695-.997.336-.23.736-.346 1.199-.346.471 0 .87.115 1.199.346M179.032 36.275c.057.029.086.072.086.13v.952c0 .073-.036.109-.107.109h-.342c-.072 0-.107-.036-.107-.109v-.606c0-.043-.018-.072-.054-.087a2.428 2.428 0 0 0-.47-.13 2.597 2.597 0 0 0-.589-.064c-.4 0-.706.079-.92.238-.207.151-.31.368-.31.65 0 .26.085.462.256.606.179.137.478.23.899.281l.535.066c.514.064.892.216 1.134.454.243.231.364.556.364.975 0 .498-.171.888-.514 1.17-.342.273-.83.41-1.465.41-.657 0-1.242-.144-1.755-.432-.043-.023-.064-.066-.064-.13v-.996c0-.073.036-.109.107-.109h.342c.072 0 .107.036.107.109v.66c0 .043.015.076.043.097.371.181.799.271 1.284.271.435 0 .767-.087.995-.26.228-.173.342-.415.342-.725 0-.282-.086-.495-.256-.64-.165-.15-.471-.252-.92-.302l-.536-.065c-.485-.058-.852-.203-1.102-.434-.25-.238-.374-.556-.374-.952 0-.462.16-.823.481-1.083.321-.26.767-.39 1.338-.39.592 0 1.116.112 1.572.336M181.846 36.751a1.345 1.345 0 0 0-.503.715c-.092.281-.139.667-.139 1.158 0 .498.047.888.14 1.17.1.31.267.548.502.715.236.166.518.249.845.249.336 0 .621-.083.857-.25a1.35 1.35 0 0 0 .502-.714c.093-.282.14-.672.14-1.17 0-.49-.047-.877-.14-1.158-.1-.31-.267-.549-.502-.715-.236-.166-.521-.249-.857-.249-.327 0-.61.083-.845.25m2.055-.456c.335.231.57.56.706.986.114.368.171.815.171 1.342 0 .535-.057.986-.171 1.354a1.88 1.88 0 0 1-.706.996c-.336.231-.739.346-1.21.346-.463 0-.863-.115-1.198-.346a1.883 1.883 0 0 1-.706-.996c-.114-.368-.17-.82-.17-1.354 0-.527.056-.974.17-1.342.136-.426.371-.755.706-.986.335-.238.735-.357 1.198-.357.471 0 .874.119 1.21.357M187.035 33.957v6.053c0 .253.04.43.118.531.086.094.228.14.428.14h.182c.071 0 .107.037.107.11v.335c0 .072-.036.108-.107.108h-.246c-.378 0-.65-.094-.813-.282-.164-.195-.246-.505-.246-.93v-5.566c0-.044-.022-.065-.065-.065h-.599c-.071 0-.107-.036-.107-.109v-.325c0-.072.036-.108.107-.108h1.135c.07 0 .106.036.106.108M193.22 36.155v4.45c0 .045.021.066.064.066h.599c.071 0 .107.036.107.109v.324c0 .072-.036.108-.107.108h-1.134c-.072 0-.107-.036-.107-.108v-.606h-.01c-.13.26-.322.462-.579.606a1.779 1.779 0 0 1-.888.216c-.556 0-.988-.169-1.294-.508-.3-.34-.45-.823-.45-1.451v-2.707c0-.044-.02-.065-.064-.065h-.599c-.071 0-.107-.036-.107-.109v-.325c0-.072.036-.108.107-.108h1.134c.072 0 .107.036.107.108v3.054c0 .52.104.91.31 1.17.214.252.542.379.985.379.392 0 .713-.13.963-.39.257-.26.385-.607.385-1.04v-2.674c0-.044-.022-.065-.065-.065h-.599c-.07 0-.107-.036-.107-.109v-.325c0-.072.036-.108.107-.108h1.135c.071 0 .106.036.106.108M196.14 34.499v1.483c0 .043.021.065.065.065h.963c.07 0 .107.036.107.108v.325c0 .073-.036.109-.107.109h-.963c-.044 0-.064.021-.064.065v3.15c0 .34.06.571.181.694.128.122.346.184.653.184h.193c.07 0 .107.036.107.108v.336c0 .072-.036.108-.107.108h-.279c-.478 0-.82-.104-1.027-.314-.2-.216-.3-.578-.3-1.083v-3.183c0-.044-.02-.065-.064-.065h-.534c-.072 0-.108-.036-.108-.109v-.325c0-.072.036-.108.108-.108h.534c.043 0 .065-.022.065-.065V34.5c0-.072.035-.108.107-.108h.363c.072 0 .108.036.108.108M199.575 36.155v4.45c0 .045.021.066.064.066h.599c.071 0 .107.036.107.109v.324c0 .072-.036.108-.107.108h-1.905c-.07 0-.107-.036-.107-.108v-.324c0-.073.036-.109.107-.109h.6c.043 0 .064-.021.064-.065v-3.952c0-.044-.021-.065-.064-.065h-.6c-.07 0-.107-.036-.107-.109v-.325c0-.072.036-.108.107-.108h1.135c.071 0 .107.036.107.108m.053-2.198v.607c0 .072-.036.108-.107.108h-.47c-.072 0-.107-.036-.107-.108v-.607c0-.072.035-.108.106-.108h.47c.072 0 .108.036.108.108M202.613 36.751a1.345 1.345 0 0 0-.503.715c-.092.281-.139.667-.139 1.158 0 .498.047.888.14 1.17.1.31.267.548.502.715.235.166.517.249.845.249.335 0 .621-.083.856-.25a1.35 1.35 0 0 0 .503-.714c.093-.282.14-.672.14-1.17 0-.49-.047-.877-.14-1.158-.1-.31-.267-.549-.503-.715-.235-.166-.52-.249-.856-.249-.328 0-.61.083-.845.25m2.054-.456c.335.231.571.56.707.986.114.368.171.815.171 1.342 0 .535-.057.986-.171 1.354a1.882 1.882 0 0 1-.707.996c-.335.231-.738.346-1.209.346-.463 0-.863-.115-1.198-.346a1.882 1.882 0 0 1-.706-.996c-.114-.368-.171-.82-.171-1.354 0-.527.057-.974.171-1.342.136-.426.37-.755.706-.986.335-.238.735-.357 1.198-.357.471 0 .874.119 1.21.357M210.755 36.459c.307.339.46.823.46 1.45v2.697c0 .044.021.065.065.065h.588c.071 0 .107.036.107.109v.324c0 .072-.036.109-.107.109h-1.894c-.071 0-.107-.037-.107-.109v-.324c0-.073.036-.109.107-.109h.6c.042 0 .063-.021.063-.065V38.05c0-1.033-.438-1.549-1.316-1.549-.392 0-.716.13-.973.39s-.385.61-.385 1.05v2.664c0 .044.021.065.064.065h.6c.07 0 .106.036.106.109v.324c0 .072-.036.109-.107.109h-1.904c-.072 0-.107-.037-.107-.109v-.324c0-.073.035-.109.107-.109h.599c.043 0 .064-.021.064-.065v-3.952c0-.044-.021-.065-.064-.065h-.6c-.07 0-.106-.036-.106-.109v-.325c0-.072.035-.108.107-.108h1.134c.071 0 .107.036.107.108v.618h.01a1.41 1.41 0 0 1 .568-.607c.256-.152.56-.227.91-.227.562 0 .998.173 1.304.52M216.458 36.275c.057.029.086.072.086.13v.952c0 .073-.036.109-.108.109h-.342c-.071 0-.107-.036-.107-.109v-.606c0-.043-.018-.072-.053-.087a2.44 2.44 0 0 0-.47-.13 2.602 2.602 0 0 0-.59-.064c-.399 0-.705.079-.92.238-.207.151-.31.368-.31.65 0 .26.086.462.257.606.178.137.478.23.899.281l.535.066c.513.064.891.216 1.134.454.242.231.363.556.363.975 0 .498-.17.888-.513 1.17-.342.273-.831.41-1.466.41-.656 0-1.241-.144-1.755-.432-.042-.023-.064-.066-.064-.13v-.996c0-.073.036-.109.107-.109h.342c.072 0 .108.036.108.109v.66c0 .043.014.076.042.097.371.181.8.271 1.284.271.436 0 .767-.087.995-.26.228-.173.342-.415.342-.725 0-.282-.085-.495-.256-.64-.164-.15-.47-.252-.92-.302l-.535-.065c-.485-.058-.853-.203-1.102-.434-.25-.238-.375-.556-.375-.952 0-.462.16-.823.482-1.083.32-.26.766-.39 1.337-.39.592 0 1.116.112 1.573.336M133.85 24.427v4.45c0 .044.022.066.064.066h.6c.07 0 .106.036.106.108v.325c0 .072-.035.108-.106.108h-1.905c-.071 0-.107-.036-.107-.108v-.325c0-.072.036-.108.107-.108h.6c.042 0 .063-.022.063-.065v-3.952c0-.044-.02-.065-.064-.065h-.599c-.071 0-.107-.037-.107-.109v-.325c0-.072.036-.108.107-.108h1.134c.071 0 .107.036.107.108m.054-2.198v.606c0 .073-.036.109-.107.109h-.471c-.071 0-.107-.036-.107-.109v-.606c0-.072.036-.108.107-.108h.47c.072 0 .108.036.108.108M139.65 24.73c.306.34.46.823.46 1.452v2.696c0 .043.02.065.063.065h.589c.071 0 .107.036.107.108v.325c0 .072-.036.108-.107.108h-1.894c-.072 0-.107-.036-.107-.108v-.325c0-.072.035-.108.107-.108h.6c.042 0 .063-.022.063-.065v-2.556c0-1.032-.438-1.548-1.316-1.548-.392 0-.716.13-.973.39s-.386.61-.386 1.05v2.664c0 .043.022.065.065.065h.599c.071 0 .107.036.107.108v.325c0 .072-.036.108-.107.108h-1.905c-.07 0-.106-.036-.106-.108v-.325c0-.072.035-.108.106-.108h.6c.042 0 .064-.022.064-.065v-3.952c0-.044-.022-.065-.064-.065h-.6c-.07 0-.106-.037-.106-.109v-.325c0-.072.035-.108.106-.108h1.135c.07 0 .106.036.106.108v.617h.011c.128-.26.318-.461.567-.606.257-.152.56-.227.91-.227.563 0 .999.173 1.305.52M145.352 24.546c.057.03.086.072.086.13v.953c0 .073-.036.109-.108.109h-.342c-.071 0-.107-.036-.107-.109v-.606c0-.043-.018-.072-.053-.087a2.436 2.436 0 0 0-.471-.13 2.583 2.583 0 0 0-.589-.064c-.4 0-.706.079-.92.238-.207.151-.31.368-.31.65 0 .26.085.461.257.605.178.138.477.232.898.282l.535.065c.514.065.892.217 1.135.455.242.23.363.556.363.975 0 .498-.171.887-.513 1.17-.343.273-.831.41-1.466.41-.656 0-1.241-.144-1.755-.433-.043-.021-.064-.065-.064-.13v-.996c0-.072.036-.108.107-.108h.342c.072 0 .107.036.107.108v.66c0 .044.015.077.043.098.371.18.799.27 1.284.27.435 0 .767-.086.995-.259.228-.173.342-.415.342-.726 0-.28-.085-.494-.256-.638-.164-.152-.471-.253-.92-.304l-.535-.064c-.486-.058-.853-.203-1.102-.434-.25-.238-.375-.556-.375-.953 0-.461.16-.822.481-1.082.322-.26.767-.39 1.338-.39.592 0 1.116.112 1.573.335M151.215 24.427v4.45c0 .044.021.066.064.066h.6c.07 0 .106.036.106.108v.325c0 .072-.035.108-.107.108h-1.134c-.071 0-.107-.036-.107-.108v-.607h-.01c-.129.26-.321.462-.579.607a1.777 1.777 0 0 1-.887.216c-.556 0-.988-.17-1.295-.509-.3-.339-.45-.822-.45-1.45v-2.707c0-.044-.02-.065-.064-.065h-.599c-.071 0-.107-.037-.107-.109v-.325c0-.072.036-.108.107-.108h1.134c.072 0 .107.036.107.108v3.054c0 .52.104.91.31 1.17.215.252.543.378.985.378.392 0 .713-.13.963-.39.257-.26.385-.606.385-1.039v-2.674c0-.044-.021-.065-.064-.065h-.6c-.07 0-.106-.037-.106-.109v-.325c0-.072.036-.108.107-.108h1.134c.072 0 .107.036.107.108M156.243 24.32c.065.02.096.06.096.118v.357c0 .087-.039.12-.117.098a3.094 3.094 0 0 0-.642-.076c-.407 0-.735.152-.984.455-.25.296-.375.733-.375 1.31v2.296c0 .043.022.065.064.065h.685c.072 0 .107.036.107.108v.325c0 .072-.035.108-.107.108h-1.99c-.071 0-.107-.036-.107-.108v-.325c0-.072.036-.108.107-.108h.6c.042 0 .063-.022.063-.065v-3.953c0-.043-.021-.064-.064-.064h-.599c-.071 0-.107-.037-.107-.109v-.325c0-.072.036-.108.107-.108h1.134c.072 0 .107.036.107.108v.77h.011a1.55 1.55 0 0 1 .524-.683c.243-.18.535-.27.878-.27.27 0 .474.024.61.075M158.159 27.286c-.229.166-.343.422-.343.769 0 .325.107.574.321.747.221.173.535.26.942.26.442 0 .792-.105 1.048-.314.264-.217.396-.502.396-.856v-.79c0-.043-.022-.065-.064-.065h-1.198c-.5 0-.867.083-1.102.249m2.503-2.685c.285.252.428.693.428 1.32v2.957c0 .043.021.065.065.065h.599c.07 0 .106.036.106.108v.325c0 .072-.035.108-.106.108h-1.113c-.072 0-.107-.036-.107-.108v-.542h-.011c-.107.231-.296.416-.567.553-.264.137-.595.205-.995.205-.528 0-.945-.13-1.252-.39-.306-.267-.46-.646-.46-1.137 0-.505.164-.884.492-1.136.336-.26.817-.39 1.445-.39h1.273c.042 0 .064-.022.064-.065v-.52c0-.44-.093-.75-.278-.931-.185-.188-.518-.281-.995-.281-.407 0-.749.064-1.027.194-.036.015-.054.04-.054.076v.639c0 .072-.035.108-.107.108h-.353c-.07 0-.106-.036-.106-.108v-.931c0-.065.024-.112.074-.141.2-.115.439-.206.717-.27.285-.066.578-.098.877-.098.65 0 1.113.13 1.391.39M166.814 24.73c.307.34.46.823.46 1.452v2.696c0 .043.021.065.064.065h.59c.07 0 .106.036.106.108v.325c0 .072-.036.108-.107.108h-1.894c-.071 0-.107-.036-.107-.108v-.325c0-.072.036-.108.107-.108h.6c.042 0 .063-.022.063-.065v-2.556c0-1.032-.438-1.548-1.316-1.548-.392 0-.717.13-.973.39-.257.26-.385.61-.385 1.05v2.664c0 .043.021.065.064.065h.6c.07 0 .106.036.106.108v.325c0 .072-.036.108-.107.108h-1.905c-.07 0-.106-.036-.106-.108v-.325c0-.072.035-.108.106-.108h.6c.042 0 .064-.022.064-.065v-3.952c0-.044-.022-.065-.064-.065h-.6c-.07 0-.106-.037-.106-.109v-.325c0-.072.035-.108.106-.108h1.135c.071 0 .107.036.107.108v.617h.01c.129-.26.318-.461.567-.606.257-.152.56-.227.91-.227.563 0 .999.173 1.305.52M172.089 24.32c.271.071.492.165.663.28.022.022.04.044.054.066.014.014.021.036.021.065v.996c0 .072-.035.108-.107.108h-.353c-.071 0-.107-.036-.107-.108v-.66c0-.03-.014-.055-.043-.076a1.214 1.214 0 0 0-.428-.152 2.477 2.477 0 0 0-.588-.065c-.371 0-.678.083-.92.249a1.33 1.33 0 0 0-.514.726c-.092.274-.139.66-.139 1.158 0 .505.047.895.14 1.17.206.635.684.952 1.433.952.45 0 .788-.065 1.016-.195.029-.021.043-.046.043-.075v-.639c0-.072.036-.108.107-.108h.353c.072 0 .107.036.107.108v.974c0 .058-.029.101-.085.13-.407.246-.924.368-1.552.368-1.041 0-1.704-.44-1.99-1.32-.107-.347-.16-.802-.16-1.365 0-.542.053-.993.16-1.354a1.81 1.81 0 0 1 .717-.985c.342-.238.767-.357 1.273-.357.328 0 .628.036.899.108M175.299 25.001c-.236.166-.403.408-.503.726a2.5 2.5 0 0 0-.096.747c0 .043.02.065.064.065h2.792c.043 0 .064-.022.064-.065a2.51 2.51 0 0 0-.096-.747c-.1-.318-.271-.56-.513-.726-.235-.166-.52-.249-.856-.249-.336 0-.621.083-.856.25m2.054-.445c.335.231.57.564.706.996.057.167.097.35.118.553.021.202.032.476.032.823 0 .072-.04.108-.118.108h-3.327c-.043 0-.064.025-.064.076 0 .39.035.693.107.91.114.331.292.584.535.758.25.166.552.248.91.248.598 0 1.073-.22 1.422-.66.043-.058.093-.065.15-.022l.246.227c.05.044.053.094.01.152-.192.267-.45.48-.77.639a2.527 2.527 0 0 1-1.091.227c-.5 0-.917-.115-1.252-.346-.328-.231-.563-.57-.706-1.018-.1-.296-.15-.74-.15-1.332 0-.57.05-1.018.15-1.343.135-.432.367-.765.695-.996.336-.23.735-.346 1.199-.346.47 0 .87.115 1.198.346M124.779 44.75h.22V19.233h-.22zM80.68 12.685a.1.1 0 0 1-.066.04l-2.735.438a.222.222 0 0 1-.034.003.144.144 0 0 1-.038-.005c-.034-.009-.054-.03-.059-.064l.5-.08a.256.256 0 0 0 .122-.049c.046-.037.07-.092.075-.176l.001-1.387.738-1.74c.02-.05.056-.08.09-.08H79.288c.027.007.053.034.073.077l1.32 2.874c.027.057.026.111 0 .149zm-2.3-1.126v1.23c-.004.063-.02.102-.05.127a.189.189 0 0 1-.093.035l-.478.078.004-.012.618-1.458zm-.76 1.492l-.16.025-1.165-.285c-.025-.007-.042-.02-.05-.038-.014-.027-.011-.064.007-.107l.23-.545 1.07-.171a.2.2 0 0 0 .129-.08c.048-.067.052-.158.01-.249l-.518-1.128.5-1.18c.02-.048.056-.08.09-.08l.014.002.603.148v1.86l-.737 1.742a.34.34 0 0 0-.024.086zm-.482-2.497l.494 1.075c.032.068.03.135-.004.182a.136.136 0 0 1-.087.053l-1.028.165.625-1.475zm-2.194.96l.48-1.134.377.82c.027.057.026.111 0 .148a.103.103 0 0 1-.067.04l-.79.126zm.81.004a.23.23 0 0 0 .152-.092c.056-.077.061-.18.014-.282l-.426-.928.612-1.445c.02-.048.055-.08.09-.08.03 0 .063.028.086.078l.765 1.666-.672 1.584-1.574.252c-.054.01-.096-.002-.117-.028-.02-.026-.02-.07.001-.118l.198-.467.871-.14zm-1.759 2.08a.102.102 0 0 1-.05-.004c-.051-.018-.082-.078-.081-.115v-1.813c.446-.89.697-1.926.706-2.927a6.091 6.091 0 0 0-.08-1.047l3.747-.587.008-.001c.01-.001.02 0 .03.001.023.005.079.027.078.118l-.005 1.996-.54-.132a.18.18 0 0 0-.046-.006c-.087 0-.168.062-.21.16l-.436 1.03-.716-1.558c-.045-.1-.12-.157-.206-.154-.087.001-.167.063-.208.16l-1.42 3.354c-.04.094-.035.186.015.251a.226.226 0 0 0 .185.082.35.35 0 0 0 .055-.004l1.493-.24-.182.432a.26.26 0 0 0-.005.217.203.203 0 0 0 .137.108l.777.19-3.046.489zm-.226-5.822a.476.476 0 0 0-.035.197v3.804c-.31.58-.702 1.091-1.139 1.486l-.437-.107-.005-.001c-.062-.01-.093-.082-.092-.12v-.875l.904-.129c.053-.013.079-.024.08-.024l.04-.025.003-.002c.057-.045.069-.109.073-.173V7.174l1.1-.171c.056.18.103.371.14.569l-.434.068a.257.257 0 0 0-.157.077.218.218 0 0 0-.04.06zm-1.097 5.506a5.57 5.57 0 0 0 1.061-1.368v1.564c0 .021.003.044.01.067l-1.07-.263zm-.61-5.755a.42.42 0 0 1 .012-.11.142.142 0 0 1 .013-.031.093.093 0 0 1 .026-.031.146.146 0 0 1 .07-.027l.913-.143v4.62c-.004.064-.017.098-.046.121l-.033.02c-.006.003-.027.011-.064.02l-.892.127V7.527zm-3.401 4.356v-4.91c.002-.167.057-.19.123-.2l2.407-.379v4.942c0 .086-.02.112-.038.127a.182.182 0 0 1-.08.027l-2.412.393zm2.433-.263a.292.292 0 0 0 .139-.053c.077-.06.088-.154.09-.23V6.374l1.63-.261c.03-.006.06.003.082.021.023.02.034.054.034.097l-.005.825-.901.141a.271.271 0 0 0-.131.054.23.23 0 0 0-.06.072.29.29 0 0 0-.022.055.541.541 0 0 0-.02.149v4.553l-3.142.516a.091.091 0 0 1-.08-.022.147.147 0 0 1-.048-.101v-.457l2.434-.396zm-.318 2.533a2.667 2.667 0 0 1-1.14-.051V14.1l-.028-.006a2.736 2.736 0 0 1-1.052-.58c-.885-.768-1.384-2.063-1.37-3.552.024-2.654 1.684-5.084 3.7-5.416 1.452-.239 2.74.676 3.302 2.334l-.993.155.004-.802a.244.244 0 0 0-.078-.198.23.23 0 0 0-.188-.053l-4.17.66c-.206.033-.231.204-.232.33l-.001 5.5c-.001.071.036.153.094.203a.218.218 0 0 0 .185.051l3.121-.512v.82c-.001.091.067.228.2.25l.304.076c-.518.43-1.075.697-1.658.793zm-3.782-.994c-1.252-1.05-1.714-3.093-1.176-5.202.517-2.029 1.806-3.475 3.363-3.775.69-.133 1.339.017 2.016.199-.11.005-.22.016-.332.035-2.076.342-3.785 2.83-3.81 5.545-.014 1.528.502 2.86 1.416 3.653.15.13.308.243.471.339-.709-.154-1.415-.345-1.948-.794zm7.511-4.421a6.73 6.73 0 0 1-.641 2.78V7.974c0-.063.008-.107.025-.143a.084.084 0 0 1 .014-.022.135.135 0 0 1 .082-.039l.44-.068c.056.339.083.687.08 1.036zm1.93-2.075a.097.097 0 0 1 .038 0c.013.004.933.224 1.46.355l-3.467.543a5.377 5.377 0 0 0-.14-.568l2.109-.33zm2.67 2.878a.351.351 0 0 0-.041.07l-.618 1.458V9.38l.658.162zm1.694 2.94l-1.32-2.875c-.038-.08-.094-.132-.16-.148l-.84-.207.004-2.027c.002-.121-.064-.215-.168-.244-.18-.054-1.745-.429-1.812-.445a.236.236 0 0 0-.089-.003l-2.095.327c-.275-.822-.732-1.489-1.324-1.928a2.798 2.798 0 0 0-.999-.475l-.01-.003-.004-.001c-.187-.045-.375-.097-.557-.146-.73-.2-1.484-.405-2.269-.254-1.607.309-2.935 1.793-3.465 3.872-.55 2.158-.071 4.253 1.219 5.337.636.535 1.49.714 2.315.886l.346.074c.24.068.489.103.744.103.158 0 .32-.013.483-.04.634-.105 1.237-.403 1.794-.886l1.327.326.005.002v-.001a.231.231 0 0 0 .092.003l3.356-.537.405.1a.301.301 0 0 0 .122.004l2.735-.44a.229.229 0 0 0 .151-.093c.055-.076.06-.182.014-.282z"/>
    </g>
</svg>
