<svg xmlns="http://www.w3.org/2000/svg" width="88" height="47" viewBox="0 0 88 47">
    <g fill="#1E1E1F" fill-rule="evenodd">
        <path d="M82.534 37.973c.253 0 .42-.195.463-.488l2.315-14.993c.843-5.47-.757-8.888-5.43-8.888-2.822 0-5.011 1.22-6.611 3.027h-.042c-.8-1.954-2.316-3.027-4.8-3.027s-4.378 1.269-5.515 2.88h-.042l.252-1.807c.042-.293-.084-.488-.336-.488h-5.98c-.252 0-.42.195-.462.488l-3.495 22.808c-.042.293.127.488.337.488h6.02c.253 0 .422-.195.464-.488l2.063-13.674c.337-2.296 1.473-3.615 2.99-3.615 1.641 0 2.231 1.319 1.852 3.663l-2.063 13.626c-.042.293.126.488.379.488h5.979c.252 0 .42-.195.462-.488l2.064-13.674c.336-2.296 1.473-3.615 3.03-3.615 1.601 0 2.19 1.319 1.811 3.663l-2.063 13.626c-.041.293.127.488.38.488h5.978zm-36.959-8.217c.424-1.38 1.084-5.213 1.084-6.727 0-1.856-.631-2.93-2.147-2.93-1.263 0-2.148.683-2.779 2.148-.547 1.319-2.163 11.696-2.324 12.847l-1.633 11.182c-.043.292-.169.488-.422.488h-6.063c-.21 0-.379-.196-.336-.488l4.8-31.599c.042-.293.21-.488.463-.488h6.02c.253 0 .421.195.38.488l-.295 1.857h.041c1.138-1.71 3.032-2.93 5.516-2.93 3.958 0 5.768 2.93 5.768 7.765 0 3.223-.926 8.152-2.231 11.279-1.6 3.71-3.778 5.114-7.146 5.114-1.856 0-3.619-.865-4.413-1.704-.279-.294-.15-.83.217-.928 1.367-.369 4.47-2.02 5.5-5.374zm-21.864 8.217c-.253 0-.421-.195-.38-.488l2.063-13.626c.38-2.344-.21-3.663-1.81-3.663-1.558 0-2.694 1.319-3.031 3.615L18.49 37.485c-.042.293-.21.488-.463.488h-5.98c-.252 0-.42-.195-.378-.488l2.063-13.626c.38-2.344-.21-3.663-1.853-3.663-1.515 0-2.652 1.319-2.989 3.615L6.827 37.485c-.042.293-.21.488-.463.488H.344c-.21 0-.38-.195-.338-.488l3.495-22.808c.042-.293.21-.488.463-.488h5.979c.253 0 .379.195.337.488l-.253 1.807h.042c1.137-1.611 3.032-2.88 5.515-2.88 2.485 0 4 1.073 4.8 3.027h.042c1.6-1.807 3.79-3.027 6.61-3.027 4.674 0 6.274 3.418 5.432 8.888l-2.315 14.993c-.043.293-.212.488-.464.488h-5.978z"/>
        <path stroke="#1E1E1F" stroke-width=".5" d="M59.41 6.993l.93-1.23c.034-.044.07-.066.108-.066h.582c.038 0 .057.022.057.066v.516c0 .044-.019.066-.057.066h-.37c-.023 0-.044.013-.063.04l-.388.51.662 1.303c.018.026.037.04.056.04h.274c.038 0 .057.021.057.065v.517c0 .044-.019.066-.057.066h-.633c-.038 0-.068-.022-.091-.066l-.69-1.377-.377.497v.258c0 .026.012.04.034.04h.246c.038 0 .057.021.057.065v.517c0 .044-.02.066-.057.066h-1.198c-.038 0-.057-.022-.057-.066v-.517c0-.044.019-.066.057-.066h.245c.023 0 .034-.013.034-.04V5.076c0-.027-.011-.04-.034-.04h-.245c-.038 0-.057-.022-.057-.066v-.516c0-.044.019-.067.057-.067h.861c.038 0 .057.023.057.067v2.54zM62.507 5.028c0 .044-.019.066-.056.066h-.525c-.038 0-.057-.022-.057-.066v-.575c0-.044.019-.067.057-.067h.525c.037 0 .056.023.056.067v.575zm0 3.17c0 .026.012.04.035.04h.245c.038 0 .057.021.057.065v.517c0 .044-.019.066-.057.066h-1.198c-.038 0-.057-.022-.057-.066v-.517c0-.044.019-.066.057-.066h.245c.023 0 .035-.013.035-.04V6.386c0-.027-.012-.04-.035-.04h-.245c-.038 0-.057-.022-.057-.066v-.516c0-.044.019-.066.057-.066h.862c.037 0 .056.022.056.066v2.435zM65.217 5.75v.575c0 .026-.006.045-.017.056-.012.011-.029.015-.052.01a1.95 1.95 0 0 0-.336-.053c-.205 0-.36.067-.462.199-.103.132-.154.34-.154.622v1.039c0 .026.011.04.034.04h.268c.038 0 .057.021.057.065v.517c0 .044-.019.066-.057.066h-1.22c-.039 0-.058-.022-.058-.066v-.517c0-.044.02-.066.057-.066h.246c.022 0 .034-.013.034-.04V6.386c0-.027-.012-.04-.034-.04h-.246c-.038 0-.057-.022-.057-.066v-.516c0-.044.02-.066.057-.066h.862c.038 0 .057.022.057.066v.33h.005a.87.87 0 0 1 .271-.317.697.697 0 0 1 .42-.126c.095 0 .184.011.268.033.038.01.057.031.057.067M66.135 6.663a.982.982 0 0 0-.034.27c0 .027.011.04.034.04h1.078c.023 0 .034-.013.034-.04a.972.972 0 0 0-.034-.27.57.57 0 0 0-.2-.301.536.536 0 0 0-.336-.11.545.545 0 0 0-.542.41m1.665-.158c.035.119.059.246.072.384.013.137.02.328.02.575 0 .044-.021.066-.063.066h-1.694c-.023 0-.034.013-.034.04 0 .08.013.16.04.245a.685.685 0 0 0 .228.357.608.608 0 0 0 .388.126c.27 0 .485-.102.644-.305.03-.035.06-.04.086-.013l.336.344c.027.027.03.058.006.093-.122.168-.28.3-.473.397a1.444 1.444 0 0 1-.656.145c-.29 0-.534-.078-.733-.234a1.206 1.206 0 0 1-.414-.652 2.94 2.94 0 0 1-.097-.781c0-.304.03-.567.092-.787.075-.278.213-.494.413-.649.2-.154.436-.231.71-.231.282 0 .521.078.719.235.198.156.335.371.41.645M70.915 6.279c0 .044-.02.066-.057.066h-.148c-.023 0-.038.013-.046.04l-.907 2.7a3.505 3.505 0 0 1-.254.595.817.817 0 0 1-.28.304.756.756 0 0 1-.39.093h-.177c-.038 0-.057-.023-.057-.066v-.53c0-.044.019-.066.057-.066h.103c.106 0 .191-.03.254-.09a.679.679 0 0 0 .157-.287l.08-.271-.856-2.39c-.008-.021-.021-.032-.04-.032H68.2c-.038 0-.057-.022-.057-.066v-.517c0-.044.019-.066.057-.066h1.066c.038 0 .057.022.057.066v.517c0 .044-.019.066-.057.066h-.182c-.027 0-.036.015-.029.046l.491 1.502h.011l.485-1.502c.004-.013.003-.024-.003-.033a.03.03 0 0 0-.025-.013h-.183c-.038 0-.057-.022-.057-.066v-.517c0-.044.02-.066.057-.066h1.027c.038 0 .057.022.057.066v.517zM73.174 7.212c0 .216.02.39.062.523.076.273.238.41.485.41.251 0 .414-.137.49-.41.043-.133.063-.307.063-.523 0-.208-.02-.382-.062-.523-.077-.269-.24-.404-.49-.404-.248 0-.41.135-.486.404a1.868 1.868 0 0 0-.062.523zM74.274 6v-.238c0-.044.02-.066.057-.066h.862c.038 0 .057.022.057.066v.516c0 .044-.02.066-.057.066h-.246c-.022 0-.034.013-.034.04v2.302c0 .463-.109.823-.328 1.079-.218.256-.537.383-.955.383-.194 0-.383-.043-.568-.129a1.056 1.056 0 0 1-.43-.347.069.069 0 0 1-.017-.046c0-.014.007-.029.022-.047l.337-.39c.023-.017.038-.026.045-.026.012 0 .025.009.04.026.18.199.379.298.6.298.41 0 .615-.254.615-.761v-.298h-.005c-.137.247-.375.37-.713.37a.888.888 0 0 1-.588-.198c-.16-.132-.275-.324-.348-.575a2.147 2.147 0 0 1-.071-.364 4.322 4.322 0 0 1-.02-.45c0-.177.007-.324.02-.443.013-.12.037-.24.071-.365.073-.255.188-.45.348-.582a.89.89 0 0 1 .588-.198c.338 0 .576.126.713.377h.005zM77.645 5.75v.575c0 .026-.005.045-.017.056-.011.011-.028.015-.051.01a1.952 1.952 0 0 0-.337-.053c-.205 0-.359.067-.461.199-.103.132-.155.34-.155.622v1.039c0 .026.012.04.035.04h.268c.038 0 .057.021.057.065v.517c0 .044-.02.066-.057.066h-1.221c-.038 0-.057-.022-.057-.066v-.517c0-.044.019-.066.057-.066h.245c.023 0 .035-.013.035-.04V6.386c0-.027-.012-.04-.035-.04h-.245c-.038 0-.057-.022-.057-.066v-.516c0-.044.019-.066.057-.066h.862c.037 0 .056.022.056.066v.33h.006a.87.87 0 0 1 .271-.317.695.695 0 0 1 .42-.126c.094 0 .184.011.267.033.038.01.057.031.057.067M78.592 6.702a1.438 1.438 0 0 0-.045.252 3.897 3.897 0 0 0-.012.337c0 .141.004.255.012.34.007.087.022.17.045.249a.639.639 0 0 0 .194.308.493.493 0 0 0 .325.109.485.485 0 0 0 .32-.11.642.642 0 0 0 .193-.307c.023-.08.039-.162.046-.248a4 4 0 0 0 .012-.34c0-.142-.004-.255-.012-.338a1.438 1.438 0 0 0-.046-.252.604.604 0 0 0-.188-.307.491.491 0 0 0-.325-.11.503.503 0 0 0-.328.11.595.595 0 0 0-.19.307m1.647-.198c.031.114.054.231.07.35.014.12.022.265.022.437s-.008.318-.023.437a2.646 2.646 0 0 1-.069.35 1.184 1.184 0 0 1-.413.649c-.2.154-.438.232-.716.232-.281 0-.522-.078-.721-.232-.2-.155-.338-.37-.414-.649a2.685 2.685 0 0 1-.068-.35 3.498 3.498 0 0 1-.023-.437c0-.172.007-.317.023-.437.015-.119.038-.236.068-.35.076-.278.214-.494.414-.649.2-.154.44-.231.721-.231.278 0 .516.077.716.231.2.155.338.37.413.649M83.332 8.198c0 .026.011.04.034.04h.246c.038 0 .057.022.057.065v.516c0 .045-.02.067-.057.067h-.861c-.039 0-.058-.022-.058-.067v-.231h-.005a.805.805 0 0 1-.708.37.82.82 0 0 1-.687-.33c-.17-.22-.254-.506-.254-.854v-1.39c0-.026-.011-.04-.034-.04h-.245c-.038 0-.057-.021-.057-.065v-.516c0-.045.019-.066.057-.066h.86c.04 0 .058.021.058.066v1.84c0 .21.043.38.128.505a.43.43 0 0 0 .38.189c.16 0 .284-.063.373-.189.09-.125.134-.292.134-.5V6.386c0-.027-.011-.04-.034-.04h-.251c-.038 0-.057-.022-.057-.066v-.516c0-.045.02-.066.057-.066h.867c.038 0 .057.021.057.066v2.435zM85.1 6.696a2.35 2.35 0 0 0-.057.595c0 .26.02.459.057.596a.58.58 0 0 0 .188.304.5.5 0 0 0 .325.106c.13 0 .237-.035.323-.106a.593.593 0 0 0 .185-.304c.038-.137.057-.336.057-.596 0-.26-.019-.459-.057-.595a.596.596 0 0 0-.185-.305.49.49 0 0 0-.323-.106.5.5 0 0 0-.325.106.584.584 0 0 0-.188.305m1.631-.305c.035.128.06.257.075.387s.022.301.022.513c0 .212-.007.383-.022.513-.016.13-.04.259-.075.387-.072.252-.19.442-.353.572a.932.932 0 0 1-.599.196c-.335 0-.578-.126-.73-.377h-.006v.806c0 .027.011.04.034.04h.245c.039 0 .058.022.058.067v.516c0 .043-.02.066-.058.066h-1.197c-.038 0-.057-.023-.057-.066v-.516c0-.045.019-.066.057-.066h.245c.023 0 .034-.014.034-.04V6.384c0-.027-.011-.04-.034-.04h-.245c-.038 0-.057-.022-.057-.066v-.517c0-.044.019-.066.057-.066h.86c.04 0 .058.022.058.066v.239h.006c.152-.252.395-.377.73-.377.236 0 .435.065.599.195.163.13.281.321.353.572M55.93 8.99a.08.08 0 0 1-.052.036l-2.195.404a.156.156 0 0 1-.027.003.102.102 0 0 1-.03-.005c-.028-.008-.044-.028-.048-.059l.4-.074a.192.192 0 0 0 .099-.044c.037-.034.057-.085.06-.163l.001-1.275.592-1.602c.017-.045.046-.073.073-.073h.008l.002.001c.022.006.043.03.059.07l1.06 2.644c.02.052.02.102-.001.137zm-1.844-1.036v1.132c-.004.058-.016.094-.041.116a.141.141 0 0 1-.074.033l-.384.071.003-.01.496-1.342zm-.611 1.373l-.128.023-.935-.263a.06.06 0 0 1-.041-.034c-.01-.025-.008-.06.006-.098l.185-.502.858-.158a.159.159 0 0 0 .104-.073c.039-.062.042-.145.008-.23l-.416-1.037.401-1.085c.017-.045.045-.074.073-.074.003 0 .007 0 .011.002l.485.136v1.712l-.593 1.601a.35.35 0 0 0-.018.08zm-.387-2.297l.397.989c.025.063.024.124-.003.167a.108.108 0 0 1-.07.05l-.825.15.501-1.356zm-1.76.883l.385-1.044.302.755c.021.052.021.102 0 .136a.081.081 0 0 1-.054.037l-.634.116zm.65.004a.183.183 0 0 0 .121-.085.283.283 0 0 0 .011-.26l-.342-.853.492-1.33c.016-.043.044-.073.072-.073.025 0 .05.026.069.071l.614 1.533-.539 1.458-1.264.232c-.043.008-.077-.002-.093-.027-.016-.024-.016-.063 0-.108l.16-.43.699-.128zM50.566 9.83a.072.072 0 0 1-.04-.003c-.042-.017-.066-.073-.066-.107V8.053c.359-.819.56-1.772.567-2.694a6.407 6.407 0 0 0-.064-.963l3.007-.54H54c.02.005.064.025.063.11l-.003 1.836-.434-.122a.127.127 0 0 0-.036-.005c-.07 0-.136.056-.169.147l-.35.948-.575-1.434c-.036-.091-.097-.144-.166-.142-.07.002-.134.058-.167.148l-1.14 3.085c-.032.087-.027.171.013.231.033.05.086.076.148.076.015 0 .03-.001.045-.004l1.198-.22-.146.397a.271.271 0 0 0-.004.2c.02.049.06.084.11.098l.624.176-2.445.449zm-.182-5.356a.494.494 0 0 0-.028.182v3.499a5.055 5.055 0 0 1-.914 1.367l-.351-.099h-.005c-.049-.01-.074-.076-.073-.11v-.806l.726-.118c.042-.012.063-.022.063-.023l.033-.023.003-.002c.045-.04.055-.1.058-.159V3.92l.883-.158c.045.167.083.342.113.524l-.349.063a.198.198 0 0 0-.159.125zm-.88 5.065c.323-.341.614-.772.851-1.258v1.438c0 .02.002.041.008.062l-.86-.242zm-.49-5.294a.44.44 0 0 1 .01-.102.142.142 0 0 1 .01-.028.084.084 0 0 1 .02-.029.109.109 0 0 1 .057-.025l.733-.13v4.25c-.004.058-.014.09-.037.111l-.027.019c-.005.002-.022.01-.05.018l-.717.117V4.245zm-2.73 4.007V3.734c.001-.153.045-.174.098-.183l1.933-.348v4.546c0 .08-.016.103-.031.117-.012.01-.031.018-.064.025l-1.936.36zm1.953-.242a.217.217 0 0 0 .111-.048c.062-.056.071-.142.072-.212V3.184l1.31-.24a.071.071 0 0 1 .065.02c.018.018.027.049.027.088l-.004.76-.723.13a.204.204 0 0 0-.105.049.208.208 0 0 0-.048.066.29.29 0 0 0-.018.05.566.566 0 0 0-.016.138v4.188l-2.522.475a.067.067 0 0 1-.064-.02.144.144 0 0 1-.039-.093v-.42l1.954-.365zm-.255 2.331c-.317.06-.624.043-.915-.047v-.002l-.023-.005a2.132 2.132 0 0 1-.845-.534c-.71-.707-1.11-1.898-1.1-3.268.02-2.442 1.353-4.677 2.971-4.982 1.165-.22 2.198.621 2.65 2.147l-.797.142.003-.738a.24.24 0 0 0-.062-.182.168.168 0 0 0-.15-.049l-3.348.608c-.166.03-.186.187-.186.303l-.002 5.06c0 .066.03.14.076.187a.163.163 0 0 0 .149.047l2.505-.471v.755c-.001.083.054.209.16.23l.244.069c-.415.396-.862.642-1.33.73zm-3.037-.914c-1.004-.967-1.375-2.846-.943-4.786.415-1.867 1.45-3.198 2.7-3.474.553-.121 1.074.016 1.617.183a2.092 2.092 0 0 0-.266.032c-1.666.315-3.038 2.604-3.059 5.102-.01 1.406.404 2.631 1.137 3.36.12.121.247.225.379.312-.57-.141-1.136-.317-1.565-.73zm6.03-4.068a6.95 6.95 0 0 1-.515 2.557l.001-3.26c0-.058.006-.099.019-.132a.079.079 0 0 1 .012-.02.103.103 0 0 1 .066-.035l.353-.063c.045.312.066.632.064.953zm1.549-1.91a.068.068 0 0 1 .03.002c.01.003.75.205 1.173.326l-2.783.5a5.554 5.554 0 0 0-.112-.524l1.692-.303zm2.142 2.648a.338.338 0 0 0-.032.066l-.496 1.34V5.95l.528.148zm1.36 2.705l-1.06-2.645c-.029-.073-.074-.12-.127-.136l-.675-.19.004-1.865c.001-.112-.051-.198-.135-.224-.145-.05-1.4-.395-1.454-.41a.166.166 0 0 0-.072-.003l-1.682.302c-.22-.757-.587-1.37-1.062-1.774a2.135 2.135 0 0 0-.802-.438l-.008-.002-.003-.001c-.15-.042-.301-.09-.448-.135-.585-.183-1.19-.372-1.82-.233-1.29.284-2.356 1.65-2.782 3.562-.442 1.986-.057 3.913.978 4.91.511.492 1.196.657 1.858.816l.278.067c.193.063.393.095.597.095.128 0 .257-.012.388-.037.509-.096.993-.37 1.44-.815l1.066.3.004.002v-.001a.163.163 0 0 0 .074.003l2.693-.494.325.091a.212.212 0 0 0 .098.003l2.195-.403c.05-.01.093-.04.122-.086a.288.288 0 0 0 .01-.26z"/>
    </g>
</svg>
